<?xml version="1.0" encoding="utf-8"?>
<!-- Generator: Adobe Illustrator 28.1.0, SVG Export Plug-In . SVG Version: 6.00 Build 0)  -->
<svg version="1.1" id="Ebene_1" xmlns="http://www.w3.org/2000/svg" xmlns:xlink="http://www.w3.org/1999/xlink" x="0px" y="0px"
	 viewBox="0 0 368.5 161.6" enable-background="new 0 0 368.5 161.6" xml:space="preserve">
<g>
	<path fill="#003E66" d="M112.2,6.6L7.2,111.5c-0.1-0.7-0.1-1.4-0.1-2.2V37.4c0-17.1,13.9-31,30.9-31h72
		C110.7,6.5,111.5,6.5,112.2,6.6z"/>
	<path fill="#003E66" d="M129.6,13.5L7.7,115.6c-0.1-0.4-0.2-0.8-0.2-1.3L115,6.9C120.4,7.8,125.4,10.1,129.6,13.5z"/>
	<path fill="#003E66" d="M139.2,27.6L8.6,118.9c-0.1-0.3-0.2-0.6-0.3-0.9L131.2,15.1C134.8,18.4,137.5,22.8,139.2,27.6z"/>
	<path fill="#003E66" d="M140.8,37.4V46L9.7,121.8c-0.1-0.2-0.2-0.4-0.3-0.6l130.4-91.3C140.4,32.3,140.8,34.8,140.8,37.4z"/>
	<path fill="#003E66" d="M140.8,48.8v15.3L11.1,124.5c-0.1-0.2-0.3-0.4-0.4-0.6L140.8,48.8z"/>
	<path fill="#003E66" d="M12.2,126.5l128.6-59.9v42.7c0,17.1-13.9,31-30.9,31H38C27.3,140.3,17.9,134.9,12.2,126.5z"/>
	<g>
		<path fill="#575756" d="M165.6,108c2.5,0,3.5,0.1,4.5,0.4c1.8,0.6,2.8,2.1,2.8,4.2c0,2.1-1,3.4-3.1,4c2.8,0.7,4,2.2,4,4.7
			c0,2.3-1.2,4.1-3.1,4.7c-1.2,0.4-2.2,0.5-5.4,0.5h-3.2V108H165.6z M166,115.9c1.8,0,2.7-0.1,3.5-0.6c0.9-0.5,1.4-1.5,1.4-2.6
			c0-1.3-0.6-2.3-1.7-2.7c-0.7-0.3-1.4-0.3-3.3-0.3h-1.6v6.2H166z M166.1,124.7c2.2,0,3.2-0.1,4-0.5c1-0.4,1.6-1.6,1.6-3
			c0-1.5-0.8-2.7-2.1-3.2c-0.8-0.3-1.5-0.3-3.5-0.3h-1.9v7H166.1z"/>
		<path fill="#575756" d="M188.1,116v1.8h-7.5v6.9h8.2v1.8h-10.3V108h10.1v1.8h-8.1v6.2H188.1z"/>
		<path fill="#575756" d="M195.8,108l8.9,15.4V108h1.9v18.5h-2.3l-8.8-15.3v15.3h-2V108H195.8z"/>
		<path fill="#575756" d="M223.3,113.1c-0.5-2.4-1.9-3.6-4.2-3.6c-3.3,0-5.4,3-5.4,7.7c0,4.8,2,7.7,5.4,7.7c2.6,0,4.2-1.7,4.5-4.8h2
			c-0.3,4.2-2.6,6.6-6.3,6.6c-4.7,0-7.7-3.7-7.7-9.5c0-5.8,3-9.6,7.6-9.6c3.4,0,5.6,2,6.1,5.4H223.3z"/>
		<path fill="#575756" d="M241,115.9V108h2.1v18.5H241v-8.8h-8.7v8.8h-2.1V108h2.1v7.9H241z"/>
		<path fill="#575756" d="M252,108l5.2,16.2l5.2-16.2h3.1v18.5h-2v-16.4l-5.3,16.4h-2.1l-5.3-16.4v16.4h-2V108H252z"/>
		<path fill="#575756" d="M277.8,107.9l6.4,18.6H282l-1.6-4.9h-6.9l-1.7,4.9h-2.1l6.4-18.6H277.8z M276.9,110.6l-2.9,9.2h5.8
			L276.9,110.6z"/>
		<path fill="#575756" d="M291.5,108c2.9,0,3.9,0.1,5.1,0.6c1.9,0.7,3,2.5,3,4.6c0,2.4-1.3,4.1-3.8,5l4.8,8.2h-2.5l-4.6-7.9h-3.2
			v7.9h-2.1V108H291.5z M291.6,116.8c2.2,0,2.9-0.1,3.7-0.4c1.3-0.5,2.1-1.6,2.1-3.2c0-1.4-0.6-2.5-1.7-3c-0.9-0.4-1.5-0.4-4.1-0.4
			h-1.2v7H291.6z"/>
		<path fill="#575756" d="M307,108v18.5h-2.1V108H307z M317,108l-7.5,8.7l8.2,9.7h-2.8l-7.9-9.7l7.5-8.8H317z"/>
		<path fill="#575756" d="M321.4,126.4V108h2.1v18.5H321.4z"/>
		<path fill="#575756" d="M331.6,108l8.9,15.4V108h1.9v18.5h-2.3l-8.8-15.3v15.3h-2V108H331.6z"/>
		<path fill="#575756" d="M361.4,117.3v7.6c-1.7,1.3-3.8,1.9-6.1,1.9c-5,0-8-3.6-8-9.6c0-5.8,3-9.5,7.7-9.5c3.5,0,5.7,2,6.1,5.4
			h-1.9c-0.6-2.5-1.9-3.6-4.2-3.6c-3.4,0-5.5,2.9-5.5,7.7c0,4.9,2.1,7.7,5.8,7.7c1.4,0,2.8-0.4,4.2-1.2v-4.6h-3.7v-1.8H361.4z"/>
	</g>
	<path fill="#003E66" d="M186.9,22.4v50c0,11.6-0.4,14.4-2.3,17.9c-2.9,5.2-8.7,7.5-18.8,7.5c-0.8,0-2.1,0-3.6-0.1V87.6h1.4h0.7
		c5.4-0.1,8.3-0.9,9.5-2.8c0.9-1.4,1-2.8,1-12.1V22.4H186.9z"/>
	<path fill="#003E66" d="M213.2,22.4v36.2c0,6.1,0.2,8.1,1,10.5c1.6,4.5,5.9,7.1,11.8,7.1c6.5,0,10.8-2.9,12.2-8.3
		c0.6-2.1,0.7-4,0.7-9.3V22.4H251v36.4c0,9.1-0.5,12.2-2.5,16.2c-3.6,7.5-11.9,11.7-22.5,11.7s-18.9-4.3-22.5-11.7
		c-2-4-2.5-7.1-2.5-16.2V22.4H213.2z"/>
	<path fill="#003E66" d="M282.1,22.4c7.5,0,11.3,0.4,14.7,1.6c6.1,2.1,9.8,7.3,9.8,14.2c0,7-3.1,11-10.3,13.2
		c9.2,2.1,13.7,7.2,13.7,15.6c0,7.7-4.6,14.2-11.7,16.4C294,84.7,291,85,280.1,85h-14.8V22.4H282.1z M282.2,47.6
		c4.4,0,6.7-0.3,8.6-1c2.4-1,3.9-3.6,3.9-6.8c0-3-1.4-5.5-3.8-6.6c-1.9-0.8-4.3-1.1-9.4-1.1h-4.5v15.5H282.2z M282.5,75.3
		c6.6,0,8.8-0.3,10.9-1.2c2.6-1.1,4.1-4,4.1-7.8c0-3.9-1.7-6.8-4.7-8c-2.3-0.8-4.4-1.1-10.1-1.1h-5.7v18.1H282.5z"/>
	<g>
		<path fill="#003E66" d="M357.9,47.4v10.2H333v17.1h28.4V85H321V22.4h39.4v10.2H333v14.8H357.9z"/>
	</g>
	<path fill="#575756" d="M172.8,143.1v2h-8.3v7.6h9.2v2h-11.5v-20.5h11.3v2h-9v6.9H172.8z"/>
	<path fill="#575756" d="M181.4,134.2l9.8,17.1v-17.1h2.2v20.5h-2.5l-9.8-17v17h-2.2v-20.5H181.4z"/>
	<path fill="#575756" d="M200.2,134.2l5.8,17.8l5.8-17.8h2.4l-7,20.6h-2.3l-7-20.6H200.2z"/>
	<path fill="#575756" d="M218.5,154.8v-20.5h2.4v20.5H218.5z"/>
	<path fill="#575756" d="M230.9,134.2c3.2,0,4.3,0.1,5.7,0.6c2.1,0.8,3.3,2.7,3.3,5.2c0,2.7-1.4,4.6-4.2,5.6l5.4,9.1h-2.8l-5.2-8.8
		h-3.6v8.8h-2.3v-20.5H230.9z M231.1,144c2.5,0,3.2-0.1,4.2-0.4c1.5-0.5,2.3-1.8,2.3-3.6c0-1.6-0.7-2.8-1.9-3.3
		c-1-0.4-1.7-0.5-4.6-0.5h-1.4v7.7H231.1z"/>
	<path fill="#575756" d="M261.1,144.5c0,6.3-3.4,10.6-8.3,10.6c-5,0-8.4-4.3-8.4-10.8c0-6.1,3.4-10.5,8.4-10.5
		C257.7,133.9,261.1,138.2,261.1,144.5z M246.8,144.4c0,5.3,2.3,8.7,5.9,8.7c3.5,0,5.9-3.4,5.9-8.6c0-5.2-2.3-8.6-5.9-8.6
		S246.8,139.3,246.8,144.4z"/>
	<path fill="#575756" d="M269.1,134.2l9.8,17.1v-17.1h2.2v20.5h-2.5l-9.8-17v17h-2.2v-20.5H269.1z"/>
	<path fill="#575756" d="M291.1,134.2l5.8,18l5.8-18h3.5v20.5h-2.2v-18.2l-5.9,18.2h-2.3l-5.9-18.2v18.2h-2.2v-20.5H291.1z"/>
	<path fill="#575756" d="M323.3,143.1v2H315v7.6h9.2v2h-11.5v-20.5h11.3v2h-9v6.9H323.3z"/>
	<path fill="#575756" d="M331.9,134.2l9.8,17.1v-17.1h2.2v20.5h-2.5l-9.8-17v17h-2.2v-20.5H331.9z"/>
	<path fill="#575756" d="M361.4,134.2v2h-5.4v18.5h-2.3v-18.5h-5.3v-2H361.4z"/>
</g>
</svg>
